<svg xmlns="http://www.w3.org/2000/svg" width="22.399" height="14" viewBox="0 0 22.399 14"><defs><style>.a{fill:#161717;}</style></defs><path class="a" d="M6.476,6.005a8.3,8.3,0,0,1,1.795.175,4,4,0,0,1,1.386.569,2.643,2.643,0,0,1,.9,1.047,3.761,3.761,0,0,1,.317,1.615,3.046,3.046,0,0,1-.474,1.736,3.419,3.419,0,0,1-1.4,1.138,3.29,3.29,0,0,1,1.889,1.28,3.82,3.82,0,0,1,.62,2.2,3.842,3.842,0,0,1-.383,1.8,3.43,3.43,0,0,1-1.083,1.262,4.79,4.79,0,0,1-1.557.715,6.869,6.869,0,0,1-1.783.237H0V6.013H6.476Zm9.34,11.353a2.422,2.422,0,0,0,1.769.6,2.418,2.418,0,0,0,1.426-.419,1.722,1.722,0,0,0,.73-.875h2.414a4.555,4.555,0,0,1-1.772,2.568,5.127,5.127,0,0,1-2.874.773,5.729,5.729,0,0,1-2.122-.372,4.612,4.612,0,0,1-1.6-1.065,4.73,4.73,0,0,1-1.007-1.652,6.1,6.1,0,0,1-.35-2.119,5.642,5.642,0,0,1,.379-2.082A4.837,4.837,0,0,1,15.47,9.929a4.968,4.968,0,0,1,2.071-.4,4.692,4.692,0,0,1,2.221.489,4.461,4.461,0,0,1,1.55,1.306,5.192,5.192,0,0,1,.879,1.889,7.519,7.519,0,0,1,.2,2.221h-7.18a2.819,2.819,0,0,0,.664,1.925l-.076.029ZM6.254,17.4a3.972,3.972,0,0,0,.846-.088,2.112,2.112,0,0,0,.711-.281,1.4,1.4,0,0,0,.489-.543,1.924,1.924,0,0,0,.175-.9,1.8,1.8,0,0,0-.6-1.51A2.564,2.564,0,0,0,6.3,13.638H3.023v3.782H6.254V17.39Zm12.705-5.273a2.058,2.058,0,0,0-1.55-.555,2.316,2.316,0,0,0-1.087.223,2.057,2.057,0,0,0-.693.55,1.96,1.96,0,0,0-.365.7,3.137,3.137,0,0,0-.124.664h4.445a2.692,2.692,0,0,0-.634-1.579v.011ZM6.086,11.555a2.178,2.178,0,0,0,1.331-.383,1.439,1.439,0,0,0,.518-1.251,1.751,1.751,0,0,0-.168-.788A1.358,1.358,0,0,0,7.3,8.657a1.979,1.979,0,0,0-.675-.241,3.99,3.99,0,0,0-.784-.069H3.015v3.209Zm8.493-4.627h5.572V8.284H14.579V6.917Z" transform="translate(0.001 -6.005)"/></svg>