<svg xmlns="http://www.w3.org/2000/svg" width="21.254" height="18" viewBox="0 0 21.254 18"><defs><style>.a{fill:#161717;}</style></defs><path class="a" d="M14.3,18.514a1.336,1.336,0,0,1,1.093.589,2.259,2.259,0,0,1,.421,1.486,2.638,2.638,0,0,1-.421,1.458,1.407,1.407,0,0,1-1.093.617,1.047,1.047,0,0,1-1.065-.617,3.9,3.9,0,0,1-.449-1.458,2.035,2.035,0,0,1,.449-1.486Q13.766,18.4,14.3,18.514ZM19.514,13.1a7,7,0,0,1,1.29,1.935,5.858,5.858,0,0,1,.449,2.523,10.606,10.606,0,0,1-.5,3.5A6.832,6.832,0,0,1,19.4,23.421a7.159,7.159,0,0,1-1.794,1.458,7.98,7.98,0,0,1-1.963.785,8.8,8.8,0,0,1-1.794.28L12.617,26H8.636q-.421,0-1.234-.056a11.088,11.088,0,0,1-1.766-.28,7.686,7.686,0,0,1-1.963-.785A7.115,7.115,0,0,1,1.85,23.421,6.749,6.749,0,0,1,.533,21.065,11.239,11.239,0,0,1,0,17.561a6.265,6.265,0,0,1,.477-2.523A6.781,6.781,0,0,1,1.738,13.1a1.75,1.75,0,0,1-.084-.673q0-.5.028-1.178a7.963,7.963,0,0,1,.252-1.57A13.658,13.658,0,0,1,2.467,8a6.663,6.663,0,0,1,1.43.393q.7.252,1.654.7a15.155,15.155,0,0,1,2.159,1.29A8.223,8.223,0,0,1,9,10.159a11.622,11.622,0,0,1,1.626-.056l1.626.056a4,4,0,0,1,1.29.224A16.75,16.75,0,0,1,15.7,9.093a14.259,14.259,0,0,1,1.654-.7A6.663,6.663,0,0,1,18.785,8a11.664,11.664,0,0,1,.533,1.682,10.48,10.48,0,0,1,.252,1.57q.056.729.056,1.178A1.562,1.562,0,0,1,19.514,13.1Zm-8.86,11.888a26.2,26.2,0,0,0,3.056-.168,8.2,8.2,0,0,0,2.467-.645,3.84,3.84,0,0,0,1.654-1.43,4.434,4.434,0,0,0,.589-2.523,3.89,3.89,0,0,0-.28-1.458,3.292,3.292,0,0,0-.925-1.262,2.673,2.673,0,0,0-1.234-.673,5.917,5.917,0,0,0-1.57-.14q-.869.028-1.794.112t-1.963.084H10.6q-1.009,0-1.963-.084t-1.794-.112a5.777,5.777,0,0,0-1.542.14,2.673,2.673,0,0,0-1.234.673,3.292,3.292,0,0,0-.925,1.262,4.328,4.328,0,0,0-.308,1.458,4.5,4.5,0,0,0,.617,2.523,4.149,4.149,0,0,0,1.626,1.43,7,7,0,0,0,2.467.645q1.458.14,3.056.168Zm-3.7-6.477a1.336,1.336,0,0,1,1.093.589,2.26,2.26,0,0,1,.421,1.486,2.638,2.638,0,0,1-.421,1.458,1.407,1.407,0,0,1-1.093.617,1.047,1.047,0,0,1-1.065-.617,3.9,3.9,0,0,1-.449-1.458A2.035,2.035,0,0,1,5.888,19.1Q6.421,18.4,6.953,18.514Z" transform="translate(0 -8)"/></svg>